{"title":"Need for Speed 2014 HDRip x264 AC3-MiLLENiUM","uid":10529895,"size":1175726929,"categoryP":"video","categoryS":"movies","magnet":"?xt=urn:btih:6cb92caf2a57d143dc3723b66ff77fdda77a74d5&amp;dn=Need+for+Speed+2014+HDRip+x264+AC3-MiLLENiUM&amp;tr=udp%3A%2F%2Ftracker.openbittorrent.com%3A80&amp;tr=udp%3A%2F%2Fopen.demonii.com%3A1337&amp;tr=udp%3A%2F%2Ftracker.coppersurfer.tk%3A6969&amp;tr=udp%3A%2F%2Fexodus.desync.com%3A6969","seeders":17,"leechers":3,"uploader":"xxxlavalxxx","files":-1,"time":1405093045,"description":"[IMG]http://i.imgur.com/wj6tMga.png[/IMG]\n\n &lt;a href=&quot;\nhttp://www.imdb.com/title/tt2369135/&quot; rel=&quot;nofollow&quot; target=&quot;_NEW&quot;&gt;\nhttp://www.imdb.com/title/tt2369135/&lt;/a&gt;\n\n\n\nFresh from prison, a street racer who was framed by a wealthy business associate joins a cross country race with revenge in mind. His ex-partner, learning of the plan, places a massive bounty on his head as the race begins.\n\nDirector: Scott Waugh\nWriters: George Gatins (screenplay), George Gatins (story)\nStars: Aaron Paul, Dominic Cooper, Scott Mescudi \nGenres: Action | Crime | Drama | Thriller\nCountry: USA\nLanguage: English\n\n\nNeed for Speed 2014 HDRip x264 AC3-MiLLENiUM                  \n\nGeneral\n\nSource...............: 1080p WEBDL-A Friend [THANKS]\nIMDb Information.... : http://www.imdb.com/title/tt2369135/\nSample Included......: yes\n\nNOTES: Nice source used, NO SUBS, normalised and bass boosted the audio. The video we corrected white balance, lowered the yellow tone, added a bit of saturation and sharpness, Enjoy Cheers. \n\nGeneral\nComplete name                            : Need for Speed 2014 HDRip x264 AC3-MiLLENiUM.mkv\nFormat                                   : Matroska\nFormat version                           : Version 2\nFile size                                : 1.06 GiB\nDuration                                 : 2h 5mn\nOverall bit rate mode                    : Constant\nOverall bit rate                         : 1 206 Kbps\nEncoded date                             : UTC 2014-07-11 13:03:28\nWriting application                      : mkvmerge v7.0.0 ('Where We Going') 32bit built on Jun  9 2014 15:08:34\nWriting library                          : libebml v1.3.0 + libmatroska v1.4.1\n\nVideo\nID                                       : 1\nFormat                                   : AVC\nFormat/Info                              : Advanced Video Codec\nFormat profile                           : &lt;a class=&quot;__cf_email__&quot; href=&quot;/cdn-cgi/l/email-protection&quot; data-cfemail=&quot;1f577678775f532c312f&quot;&gt;[email&amp;#160;protected]&lt;/a&gt;&lt;script cf-hash='f9e31' type=&quot;text/javascript&quot;&gt;\n/* &lt;![CDATA[ */!function(){try{var t=&quot;currentScript&quot;in document?document.currentScript:function(){for(var t=document.getElementsByTagName(&quot;script&quot;),e=t.length;e--;)if(t[e].getAttribute(&quot;cf-hash&quot;))return t[e]}();if(t&amp;&amp;t.previousSibling){var e,r,n,i,c=t.previousSibling,a=c.getAttribute(&quot;data-cfemail&quot;);if(a){for(e=&quot;&quot;,r=parseInt(a.substr(0,2),16),n=2;a.length-n;n+=2)i=parseInt(a.substr(n,2),16)^r,e+=String.fromCharCode(i);e=document.createTextNode(e),c.parentNode.replaceChild(e,c)}}}catch(u){}}();/* ]]&gt; */&lt;/script&gt;\nFormat settings, CABAC                   : Yes\nFormat settings, ReFrames                : 3 frames\nCodec ID                                 : V_MPEG4/ISO/AVC\nDuration                                 : 2h 5mn\nBit rate mode                            : Constant\nBit rate                                 : 768 Kbps\nWidth                                    : 720 pixels\nHeight                                   : 304 pixels\nDisplay aspect ratio                     : 2.35:1\nFrame rate mode                          : Constant\nFrame rate                               : 30.000 fps\nStandard                                 : NTSC\nColor space                              : YUV\nChroma subsampling                       : 4:2:0\nBit depth                                : 8 bits\nScan type                                : Progressive\nBits/(Pixel*Frame)                       : 0.117\nStream size                              : 658 MiB (61%)\nLanguage                                 : English\nDefault                                  : Yes\nForced                                   : No\nColor primaries                          : BT.601 NTSC\nTransfer characteristics                 : BT.601\nMatrix coefficients                      : BT.601\n\nAudio\nID                                       : 2\nFormat                                   : AC-3\nFormat/Info                              : Audio Coding 3\nMode extension                           : CM (complete main)\nFormat settings, Endianness              : Big\nCodec ID                                 : A_AC3\nDuration                                 : 2h 5mn\nBit rate mode                            : Constant\nBit rate                                 : 448 Kbps\nChannel(s)                               : 6 channels\nChannel positions                        : Front: L C R, Side: L R, LFE\nSampling rate                            : 48.0 KHz\nBit depth                                : 16 bits\nCompression mode                         : Lossy\nStream size                              : 402 MiB (37%)\nLanguage                                 : English\nDefault                                  : Yes\nForced                                   : No\n\n\nscreens\n &lt;a href=&quot;\nhttp://i.imgur.com/Ehe5Myj.jpg&quot; rel=&quot;nofollow&quot; target=&quot;_NEW&quot;&gt;\nhttp://i.imgur.com/Ehe5Myj.jpg&lt;/a&gt; &lt;a href=&quot;\nhttp://i.imgur.com/uljcVpr.jpg&quot; rel=&quot;nofollow&quot; target=&quot;_NEW&quot;&gt;\nhttp://i.imgur.com/uljcVpr.jpg&lt;/a&gt; &lt;a href=&quot;\nhttp://i.imgur.com/9hMBt6r.jpg&quot; rel=&quot;nofollow&quot; target=&quot;_NEW&quot;&gt;\nhttp://i.imgur.com/9hMBt6r.jpg&lt;/a&gt; &lt;a href=&quot;\nhttp://i.imgur.com/art6j6l.jpg&quot; rel=&quot;nofollow&quot; target=&quot;_NEW&quot;&gt;\nhttp://i.imgur.com/art6j6l.jpg&lt;/a&gt; &lt;a href=&quot;\nhttp://i.imgur.com/A504uuM.jpg&quot; rel=&quot;nofollow&quot; target=&quot;_NEW&quot;&gt;\nhttp://i.imgur.com/A504uuM.jpg&lt;/a&gt;","torrent":{"xt":"urn:btih:6cb92caf2a57d143dc3723b66ff77fdda77a74d5","amp;dn":"Need+for+Speed+2014+HDRip+x264+AC3-MiLLENiUM","amp;tr":["udp%3A%2F%2Ftracker.openbittorrent.com%3A80","udp%3A%2F%2Fopen.demonii.com%3A1337","udp%3A%2F%2Ftracker.coppersurfer.tk%3A6969","udp%3A%2F%2Fexodus.desync.com%3A6969"],"infoHash":"6cb92caf2a57d143dc3723b66ff77fdda77a74d5","infoHashBuffer":{"type":"Buffer","data":[108,185,44,175,42,87,209,67,220,55,35,182,111,247,127,221,167,122,116,213]},"announce":[],"urlList":[]}}